PathFileType	4	(X/Y/Z)	Walk7.trc
DataRate	CameraRate	NumFrames	NumMarkers	Units	OrigDataRate	OrigDataStartFrame	OrigNumFrames
200.000000	200.000000	9	59	mm	200.000000	587	787
Frame#	Times		LCAR		LUA1		LACR1		RTH3		RCAR		RUA1		RACR1		LTB2		RTH1		RFHD		RWRR		RTH2		T10		RPSI		RElbowM		STRN		RBack		LMT5		LLFC		C7		RASI		LTB1		RTH4		LMT1		LPSI		LTB3		LFHD		LTB4		LToe		LLMAL		LTH3		LASI		LElbowM		LTH4		CLAV		RFA1		RElbow		RBHD		LTH1		RWRU		RLFC		LCAL		LFA1		RTB2		LWRR		LTH2		LBHD		LElbow		RTB1		RMT5		RTB3		LWRU		RTB4		RMT1		RToe		RMMAL		RLMAL		RCAL		LMMAL
			X1	Y1	Z1	X2	Y2	Z2	X3	Y3	Z3	X4	Y4	Z4	X5	Y5	Z5	X6	Y6	Z6	X7	Y7	Z7	X8	Y8	Z8	X9	Y9	Z9	X10	Y10	Z10	X11	Y11	Z11	X12	Y12	Z12	X13	Y13	Z13	X14	Y14	Z14	X15	Y15	Z15	X16	Y16	Z16	X17	Y17	Z17	X18	Y18	Z18	X19	Y19	Z19	X20	Y20	Z20	X21	Y21	Z21	X22	Y22	Z22	X23	Y23	Z23	X24	Y24	Z24	X25	Y25	Z25	X26	Y26	Z26	X27	Y27	Z27	X28	Y28	Z28	X29	Y29	Z29	X30	Y30	Z30	X31	Y31	Z31	X32	Y32	Z32	X33	Y33	Z33	X34	Y34	Z34	X35	Y35	Z35	X36	Y36	Z36	X37	Y37	Z37	X38	Y38	Z38	X39	Y39	Z39	X40	Y40	Z40	X41	Y41	Z41	X42	Y42	Z42	X43	Y43	Z43	X44	Y44	Z44	X45	Y45	Z45	X46	Y46	Z46	X47	Y47	Z47	X48	Y48	Z48	X49	Y49	Z49	X50	Y50	Z50	X51	Y51	Z51	X52	Y52	Z52	X53	Y53	Z53	X54	Y54	Z54	X55	Y55	Z55	X56	Y56	Z56	X57	Y57	Z57	X58	Y58	Z58	X59	Y59	Z59

587	2.935	396.33	880.48	-247.67	141.84	1183	-251.2	95.776	1350.2	-155.22	232.14	560.46	168.12	-6.8766	738.83	278.13	50.332	1163.5	246.42	98.057	1344.6	155.29	-128.92	261.31	-91.101	176.28	716.45	220.34	232.36	1558.3	26.919	-5.6968	795.2	232.01	254.03	662.91	173.58	-48.527	1123.5	1.9808	-35.35	940.85	67.353	-37.079	1031.1	172.08	220.6	1205.6	-0.085095	-30.007	1293.2	107.05	-197.18	30.829	-63.337	-29.996	467.84	-113.54	23.198	1390.2	6.2857	214.68	946.98	150.49	-55.688	316.78	-36.719	203.34	637.13	195.28	-165.1	37.668	13.342	-42.743	939.52	-22.501	-162.04	180.95	-35.49	215.28	1556.7	-66.433	-110.39	248.95	-34.562	-99.585	20.965	-13.769	-256.64	109.36	-57.273	9.3769	584.82	-147.35	199.47	926.16	-143.98	117.45	1013.5	-232.14	36.81	660.69	-175.36	161.29	1310.3	-5.1662	-48.973	909.22	278.56	-19.152	1053	266.25	78.067	1528.7	71.533	64.247	732.47	-213.8	-54.946	799.74	282.66	254.9	483.9	137.9	-325.44	112.43	-21.723	240.39	948.58	-291.65	332.13	262.11	115.31	347.86	904.5	-215.08	92.391	648.76	-161.13	57.988	1518.7	-69.469	154.09	1060.5	-293.38	337.09	351.11	59.822	437.44	26.918	98.718	366.61	180.75	58.558	327.95	869.8	-275.93	352.03	264.88	55.765	470.5	39.612	28.796	529.74	49.137	59.635	366.94	72.826	-0.14327	349.94	60.072	81.908	292.19	24.756	39.216	-240.29	109.26	26.589
588	2.94	400.57	879.85	-247.24	147.39	1182.9	-250.61	102.34	1350.5	-154.6	237.76	560.95	168.51	1.0588	738.47	279.21	57.255	1163.4	246.87	104.66	1344.6	155.98	-123.76	262.2	-91.569	184	717.57	220.39	238.67	1558.7	27.639	1.9328	795.03	232.76	260.98	663.2	173.65	-42.099	1123.7	2.2258	-28.625	941.19	67.483	-29.669	1030.5	172.53	227.26	1205.9	0.50564	-23.378	1293.1	108.02	-196.51	31.629	-63.459	-22.069	467.44	-113.93	29.646	1390.6	7.1292	221.84	947.49	150.7	-50.049	316.3	-36.897	210.01	637.94	195.31	-164.53	37.998	13.16	-35.611	939.85	-22.481	-158.18	182.08	-36.064	221.39	1557.1	-65.719	-105.7	249.36	-35.017	-99.529	20.943	-13.746	-253.91	112.28	-58.122	17.133	584.5	-147.25	206.44	926.21	-143.06	122.01	1013.4	-231.49	44.382	660.37	-175.04	167.87	1310.7	-4.5006	-41.271	908.85	279.3	-11.983	1052.8	266.94	84.628	1529	72.41	71.617	732.17	-213.44	-47.228	799.47	283.08	261.45	484.64	138.7	-322.49	116.91	-22.198	244.54	948.24	-290.96	337.23	262.27	114.96	352.18	904.06	-214.6	99.973	648.6	-160.75	64.453	1519	-68.595	158.7	1060.4	-292.68	342.23	350.98	59.021	437.51	27.417	99.213	369.47	180.08	58.135	332.13	868.98	-275.15	356.13	264.52	55.137	471.32	38.197	28.244	531.02	46.646	58.641	367.8	72.183	-0.55211	351.65	59.902	81.626	292.96	25.115	39.368	-237.73	111.75	25.953
589	2.945	404.58	879.16	-246.86	152.96	1182.9	-250.15	108.88	1350.9	-154.09	243.32	561.63	168.94	9.3008	738.46	279.92	64.411	1163.1	247.34	111.2	1344.7	156.63	-118.22	263.05	-92.298	191.59	719.1	220.41	245.27	1559.2	28.195	9.7597	794.8	233.22	268.03	663.75	174.13	-35.543	1124.2	2.6431	-21.515	941.84	67.716	-21.97	1030.2	172.93	233.91	1206.4	1.1258	-16.691	1293.3	108.81	-195.58	32.602	-63.684	-13.744	466.92	-114.16	36.409	1391.1	8.0031	229.11	948.22	151	-43.672	315.8	-37.51	216.74	639.05	195.43	-163.82	38.562	12.793	-28.644	940.2	-22.451	-154.01	183.51	-36.713	227.84	1557.5	-65.011	-100.72	249.8	-35.639	-99.498	20.915	-13.741	-250.96	115.34	-59.068	25.012	584	-147.3	213.56	926.3	-142.08	126.39	1013.9	-230.84	52.137	660.03	-174.76	174.52	1311.2	-3.8475	-33.579	908.59	279.91	-4.6389	1052.7	267.59	91.08	1529.5	73.171	79.015	732.01	-213.13	-39.627	799.32	283.56	268.18	485.63	139.41	-319.2	121.76	-22.809	248.56	947.81	-290.23	341.59	262.32	114.7	356.43	903.54	-214.05	107.63	648.39	-160.41	70.752	1519.5	-67.625	163.33	1060.3	-292.07	347.41	350.92	58.321	437.4	27.538	99.092	372.23	179.77	57.518	336.06	868.26	-274.32	360.02	264.27	54.521	471.74	36.807	27.611	531.98	43.969	58.482	368.46	71.629	-0.91382	352.92	59.935	81.508	293.31	25.432	39.686	-234.28	114.72	24.964
590	2.95	408.37	878.22	-246.51	158.33	1183	-249.56	115.13	1351.5	-153.49	249.23	562.51	169.4	17.3	738.58	280.68	71.516	1163.1	247.85	117.79	1344.8	157.3	-112.44	264.01	-93.168	198.86	720.66	220.72	251.62	1559.7	28.873	17.843	794.87	233.92	274.66	664.37	174.7	-28.945	1124.9	2.6727	-14.829	942.4	67.874	-14.394	1029.9	173.18	240.66	1206.9	1.8014	-10.187	1293.5	109.54	-194.52	33.627	-63.716	-5.1436	466.33	-114.36	42.813	1391.6	8.5841	235.98	948.89	151.2	-36.692	315.3	-38.32	223.5	640.25	195.77	-162.92	39.175	12.508	-21.739	940.28	-22.404	-149.71	184.99	-37.576	234.38	1558	-64.317	-94.995	250.61	-36.574	-99.546	20.608	-13.636	-247.71	118.56	-60.179	33.132	583.58	-147	220.54	926.5	-140.96	130.6	1014.2	-230.24	59.899	659.75	-174.29	180.97	1311.8	-3.2536	-25.994	908.37	280.43	2.7307	1052.7	267.93	97.829	1530	74.131	86.619	731.9	-212.8	-31.538	798.9	284.48	275.37	486.96	140.08	-315.62	126.92	-23.654	252.58	947.3	-289.52	345.34	262.26	114.44	360.63	902.83	-213.64	115.64	648.29	-160.01	77.104	1520.2	-66.809	167.91	1060.3	-291.41	352.34	350.8	58.139	437.47	27.438	99.126	374.63	179.22	57.079	339.64	867.59	-273.41	363.81	264.04	54.068	472.03	36.093	27.193	533.28	41.945	58.643	368.82	71.095	-1.0803	353.35	59.997	81.566	293.44	25.545	39.965	-230.86	117.83	23.953
591	2.955	412.17	877.3	-246.25	163.74	1183.1	-249.07	121.77	1352.1	-152.9	254.66	563.57	169.92	25.567	738.56	281.69	78.685	1163.2	248.22	124.24	1345.2	157.88	-106.36	265.07	-93.987	206.05	722.15	221.06	258.21	1560.4	29.552	26.016	794.77	234.66	281.28	665.17	175.63	-22.642	1125.5	2.8429	-8.2628	943.16	68.089	-6.8432	1029.8	173.66	247.17	1207.4	2.411	-3.477	1294.1	110.35	-193.6	34.693	-63.822	3.9275	465.74	-114.6	49.444	1392.2	9.2862	243	949.77	151.34	-29.35	314.94	-39.236	229.82	641.55	196.23	-161.96	39.546	12.125	-15.243	940.67	-22.517	-144.73	186.58	-38.621	240.65	1558.7	-63.716	-88.546	251.37	-37.79	-99.612	20.505	-13.655	-244.22	121.89	-60.928	41.479	583.07	-146.95	227.76	926.88	-139.88	134.78	1014.6	-229.41	67.946	659.42	-174.16	187.53	1312.5	-2.5783	-18.29	908.37	280.85	10.287	1052.7	268.41	104.41	1530.7	74.928	94.274	731.7	-212.44	-23.359	798.74	285.42	282.6	488.34	140.54	-311.52	132.3	-24.603	256.38	946.87	-288.87	348.96	262.17	114.33	364.48	902.21	-213.19	123.79	648.31	-159.74	83.636	1520.9	-65.715	172.38	1060.4	-290.72	357.04	350.75	58.14	437.64	27.233	99.26	377	178.94	56.622	343.04	866.76	-272.72	367.41	263.89	53.744	472.37	36.079	27.286	534.24	40.525	58.595	369.23	70.789	-1.145	353.55	60.024	81.422	293.64	25.649	40.006	-227.15	120.94	22.994
592	2.96	415.57	876.19	-246.08	169.03	1183.4	-248.67	128.44	1352.8	-152.32	260.1	564.76	170.57	34.248	738.59	282.77	86.178	1163.4	248.47	130.73	1345.5	158.72	-99.759	266.2	-94.93	213.07	723.76	221.7	264.67	1561.1	30.097	34.253	794.85	235.54	287.75	666.16	176.46	-16.428	1126.3	3.0742	-1.8445	943.89	67.828	1.0339	1029.8	174.27	253.61	1208.1	3.0047	3.2911	1294.5	110.88	-192.42	35.854	-63.75	13.228	465.14	-114.9	56.213	1392.8	10.045	249.65	950.93	151.57	-22.121	314.55	-39.995	235.74	642.94	196.71	-160.81	40.274	11.868	-8.4714	941.25	-22.777	-139.24	188.51	-39.771	247.06	1559.5	-63.077	-82.219	251.83	-38.667	-99.551	20.651	-13.742	-240.32	125.27	-61.886	50.07	582.43	-146.9	234.76	927.29	-138.69	139.11	1015.1	-228.55	76.211	659.23	-173.88	194	1313.3	-1.8794	-10.311	908.44	281.43	17.878	1052.8	268.95	110.87	1531.5	75.661	101.98	731.54	-211.88	-15.046	798.78	286.33	289.59	489.8	141.02	-306.89	137.72	-25.41	260.34	946.43	-288.18	352.72	262.17	114.59	368.14	901.47	-212.8	132.11	648.34	-159.29	90.089	1521.5	-64.865	176.71	1060.5	-290	361.64	350.76	58.251	437.85	27.025	99.568	378.98	178.59	56.498	346.26	866.05	-272.12	370.7	263.65	53.854	472.62	35.68	26.991	535.03	38.906	58.586	369.78	70.673	-1.2229	353.95	59.98	81.328	293.81	25.907	40.132	-223.03	123.94	21.773
593	2.965	418.94	875.03	-245.98	174.25	1183.8	-248.15	134.94	1353.6	-151.68	265.87	566.25	171.18	42.728	739.02	283.85	93.64	1163.7	248.98	137.35	1346	159.13	-92.916	267.36	-95.989	219.57	725.54	222.06	271.25	1561.8	30.861	42.935	795.03	236.49	294.06	667.4	177.59	-10.011	1127	2.9608	5.0036	944.83	67.769	8.9999	1029.6	174.87	260.28	1209.1	3.5647	9.7266	1295.3	111.48	-191.11	37.153	-63.843	23.146	464.53	-115.22	62.761	1393.7	10.761	256.58	952.09	151.71	-14.262	314.18	-40.989	242.14	644.73	197.12	-159.65	40.944	11.508	-1.7564	941.66	-22.993	-133.56	190.15	-40.829	253.5	1560.2	-62.308	-75.732	252.36	-39.613	-99.641	20.767	-13.87	-235.72	128.96	-63.219	59.1	581.9	-146.87	241.72	927.74	-137.47	142.77	1015.1	-228.03	84.676	658.85	-173.43	200.54	1314	-1.2464	-2.3401	908.62	282.22	25.117	1052.8	269.28	117.64	1532.2	76.712	109.95	731.55	-211.39	-6.6816	798.94	287.07	296.89	491.17	141.38	-301.76	143.32	-26.26	263.86	946.11	-287.59	356.45	262.1	114.95	371.92	900.77	-212.54	140.4	648.35	-158.86	96.402	1522.3	-64.259	181.03	1060.7	-289.22	366.11	350.69	58.684	437.96	26.948	99.761	381.06	178.28	56.438	349.21	865.06	-271.45	373.72	263.29	54.126	472.78	35.327	26.776	535.83	37.458	58.583	370.19	70.636	-1.2328	354.39	59.956	81.312	293.96	26.102	40.278	-218.48	127.28	20.457
594	2.97	421.94	873.82	-246	179.35	1184.3	-247.71	141.36	1354.5	-151.16	271.84	567.88	171.73	51.605	739.48	285.14	100.77	1164.1	249.19	143.9	1346.6	159.73	-85.563	268.65	-97.169	225.96	727.22	222.58	277.86	1562.6	31.484	51.808	795.29	237.61	300.36	668.73	178.69	-3.6425	1127.9	3.0825	11.52	945.79	67.422	16.827	1029.4	175.37	266.74	1210	4.1265	16.168	1295.9	112.21	-189.55	38.697	-64.095	33.327	463.72	-115.62	69.356	1394.5	11.507	263.38	953.25	151.88	-5.9263	313.9	-42.298	248.39	646.43	197.45	-158.34	41.628	11.166	5.0804	941.87	-23.126	-127.45	192.11	-42.11	259.87	1561	-61.598	-68.293	253.15	-40.791	-100.02	20.697	-13.747	-230.98	132.73	-64.583	68.403	581.24	-146.92	248.31	928.08	-136.37	147.06	1016.2	-227	93.095	658.51	-173.15	207.16	1314.8	-0.73202	5.753	908.82	282.71	32.713	1053.1	269.83	124.29	1532.9	76.856	117.87	731.47	-210.87	1.5947	799.18	287.62	303.3	492.43	141.6	-296.14	149.35	-27.335	267.05	945.73	-286.96	359.3	261.93	115.3	375.09	899.94	-212.27	149.09	648.45	-158.55	102.9	1523.2	-63.128	185.38	1061.1	-288.48	370.13	350.52	59.361	438.1	27.068	100.16	382.79	178	56.677	351.99	863.99	-270.93	376.77	263.06	54.523	472.97	35.168	26.767	536.64	36.319	58.609	370.5	70.691	-1.1746	354.82	59.952	81.344	294.01	26.211	40.478	-213.06	130.53	19.183
595	2.975	424.61	872.43	-246.02	184.59	1184.9	-247.26	147.97	1355.5	-150.72	277.88	569.59	172.25	60.515	740	286.41	108.02	1164.6	249.54	150.4	1347.3	160.31	-77.734	269.93	-98.423	232.47	728.99	223.29	284.35	1563.3	32.236	60.705	795.53	238.82	306.82	670.06	179.82	2.7641	1128.7	3.2098	17.978	946.9	67.07	24.468	1029.6	175.71	273.25	1210.8	4.7978	22.694	1296.7	112.65	-188.09	40.389	-64.186	43.884	462.95	-116.12	75.836	1395.5	11.975	270.51	954.83	151.88	2.6779	313.68	-43.687	254.5	647.89	197.85	-157.26	42.37	10.794	11.503	942.46	-23.623	-121.19	193.76	-43.377	266.23	1561.9	-60.918	-60.024	253.43	-43.328	-100.6	20.766	-13.515	-225.7	136.69	-65.978	77.723	580.5	-147.04	254.61	928.55	-135.12	150.81	1017.1	-226.09	101.7	658.11	-172.97	213.57	1315.6	-0.17575	13.826	909.13	283.31	40.236	1053.5	270.21	130.78	1533.8	78.164	125.84	731.38	-210.37	10.271	799.45	288.42	309.6	493.58	141.73	-289.92	155.74	-28.46	270.24	945.4	-286.32	361.71	261.87	115.91	378.33	898.93	-212.12	157.77	648.48	-158.14	109.32	1524.2	-62.262	189.67	1061.4	-287.76	373.76	350.21	60.392	438.18	27.089	100.66	384.21	177.71	56.995	354.64	862.94	-270.49	379.47	262.92	55.185	473.07	34.958	26.801	537.23	35.453	58.641	370.8	70.723	-1.0738	355.22	59.938	81.498	294.1	26.196	40.538	-207.72	134	17.504
